<?xml version="1.0" encoding="UTF-8" standalone="no"?>
<!-- Created with Inkscape (http://www.inkscape.org/) -->

<svg
   width="72.581863mm"
   height="107.42038mm"
   viewBox="0 0 72.581863 107.42038"
   version="1.1"
   id="svg1"
   xml:space="preserve"
   inkscape:version="1.4.2 (2aeb623e1d, 2025-05-12)"
   sodipodi:docname="logo.svg"
   xmlns:inkscape="http://www.inkscape.org/namespaces/inkscape"
   xmlns:sodipodi="http://sodipodi.sourceforge.net/DTD/sodipodi-0.dtd"
   xmlns="http://www.w3.org/2000/svg"
   xmlns:svg="http://www.w3.org/2000/svg"><sodipodi:namedview
     id="namedview1"
     pagecolor="#ffffff"
     bordercolor="#000000"
     borderopacity="0.25"
     inkscape:showpageshadow="2"
     inkscape:pageopacity="0.0"
     inkscape:pagecheckerboard="0"
     inkscape:deskcolor="#d1d1d1"
     inkscape:document-units="mm"
     inkscape:zoom="0.95371126"
     inkscape:cx="-91.746846"
     inkscape:cy="232.25059"
     inkscape:window-width="1920"
     inkscape:window-height="962"
     inkscape:window-x="0"
     inkscape:window-y="0"
     inkscape:window-maximized="1"
     inkscape:current-layer="layer1" /><defs
     id="defs1"><inkscape:path-effect
       effect="bspline"
       id="path-effect7"
       is_visible="true"
       lpeversion="1.3"
       weight="33.333333"
       steps="2"
       helper_size="0"
       apply_no_weight="true"
       apply_with_weight="true"
       only_selected="false"
       uniform="false" /><inkscape:path-effect
       effect="bspline"
       id="path-effect3"
       is_visible="true"
       lpeversion="1.3"
       weight="33.333333"
       steps="2"
       helper_size="0"
       apply_no_weight="true"
       apply_with_weight="true"
       only_selected="false"
       uniform="false" /><inkscape:path-effect
       effect="bspline"
       id="path-effect2"
       is_visible="true"
       lpeversion="1.3"
       weight="33.333333"
       steps="2"
       helper_size="0"
       apply_no_weight="true"
       apply_with_weight="true"
       only_selected="false"
       uniform="false" /></defs><g
     inkscape:label="Layer 1"
     inkscape:groupmode="layer"
     id="layer1"
     transform="translate(-133.82853,-99.521595)"><g
       id="g7"><circle
         style="fill:#039be4;fill-opacity:1;stroke:#ffffff;stroke-width:0.274629"
         id="path1"
         cx="170.47926"
         cy="110.24702"
         r="10.588107" /><path
         style="fill:#039be4;fill-opacity:1;stroke:#ffffff;stroke-width:0.264583"
         d="m 60.282137,112.13749 c -0.335223,-0.77448 -1.005668,-2.32344 -1.29465,-3.68745 -0.288983,-1.36402 -0.196511,-2.54305 0.208075,-3.43313 0.404586,-0.89008 1.121251,-1.49115 2.011334,-1.76858 0.890082,-0.27742 1.953525,-0.23119 2.924521,0.20808 0.970995,0.43926 1.849489,1.27152 3.063239,2.78582 1.213751,1.5143 2.762677,3.71054 4.808711,5.94152 2.046034,2.23098 4.58905,4.49658 7.028101,6.27673 2.439051,1.78016 4.773995,3.07478 7.363324,3.9533 2.589328,0.87852 5.432876,1.34088 7.814127,1.46803 2.381251,0.12716 4.300069,-0.0809 6.288301,-0.55485 1.98823,-0.47395 4.04576,-1.21373 6.12647,-2.28877 2.08071,-1.07503 4.18447,-2.48525 5.98775,-3.90706 1.80328,-1.42182 3.30596,-2.85516 4.6353,-4.25385 1.32934,-1.3987 2.48526,-2.76268 3.47937,-4.1267 0.99412,-1.36402 1.82637,-2.728 2.70489,-3.74523 0.87853,-1.01724 1.80326,-1.68766 2.73958,-1.97665 0.93632,-0.28898 1.88417,-0.19651 2.67021,0.13872 0.78605,0.33522 1.41024,0.91318 1.81482,1.66455 0.40458,0.75137 0.58953,1.67611 0.41613,2.94765 -0.17339,1.27155 -0.70512,2.88983 -1.86107,4.99366 -1.15596,2.10383 -2.93607,4.69308 -5.39824,7.58296 -2.46218,2.88987 -5.60627,6.0802 -8.66954,8.78511 -3.06326,2.70492 -6.04552,4.92427 -9.43245,7.32865 -3.38694,2.40437 -7.178333,4.99362 -9.06251,6.36919 -1.884178,1.37557 -1.861059,1.5374 -1.953535,1.49116 -0.09248,-0.0462 -0.300546,-0.30055 -0.473938,-0.50862 -0.173391,-0.20807 -0.3121,-0.3699 -2.230991,-1.71081 -1.918892,-1.34091 -5.617818,-3.86081 -9.351535,-6.73912 -3.733717,-2.87832 -7.501998,-6.11488 -10.831126,-9.32842 -3.329127,-3.21353 -6.218916,-6.40386 -8.010625,-8.58859 -1.791708,-2.18473 -2.485259,-3.36377 -2.832039,-3.95329 -0.34678,-0.58953 -0.346782,-0.58953 -0.682004,-1.36401 z"
         id="path2"
         inkscape:path-effect="#path-effect2"
         inkscape:original-d="m 60.617359,112.91197 c -0.670444,-1.54896 -1.340888,-3.09792 -2.011331,-4.64687 0.09248,-1.17908 0.184949,-2.35811 0.277423,-3.53717 0.716696,-0.6011 1.433365,-1.20217 2.150044,-1.80326 1.063485,0.0462 2.126925,0.0925 3.190388,0.13871 0.878531,0.83229 1.757024,1.66455 2.635539,2.49683 1.548987,2.19632 3.097911,4.39256 4.646866,6.58884 2.543114,2.26568 5.086125,4.53128 7.629189,6.79691 2.33504,1.29468 4.669986,2.5893 7.004981,3.88395 2.843663,0.46238 5.687211,0.92475 8.530818,1.38713 1.918893,-0.20808 3.837712,-0.41614 5.756564,-0.62421 2.05761,-0.73982 4.11514,-1.4796 6.17271,-2.2194 2.10385,-1.41027 4.20761,-2.82049 6.31142,-4.23073 1.50275,-1.43339 3.00543,-2.86673 4.50815,-4.30009 1.15596,-1.36403 2.31188,-2.72801 3.46782,-4.09202 0.83229,-1.36403 1.66454,-2.72801 2.49682,-4.09202 0.92477,-0.67045 1.8495,-1.34088 2.77425,-2.01133 0.94789,0.0925 1.89574,0.18495 2.84361,0.27743 0.62421,0.57798 1.24841,1.15594 1.87262,1.7339 0.18495,0.92477 0.36989,1.84951 0.55485,2.77426 -0.53175,1.61834 -1.06347,3.23662 -1.5952,4.85493 -1.78018,2.58935 -3.56029,5.1786 -5.34043,7.7679 -3.14421,3.19045 -6.2883,6.38078 -9.43245,9.57116 -2.98238,2.21945 -5.96464,4.4388 -8.94695,6.6582 -3.79156,2.58935 -7.582953,5.1786 -11.374429,7.7679 0.02312,0.16184 0.04624,0.32367 0.06936,0.4855 -0.208074,-0.25431 -0.41614,-0.50862 -0.624208,-0.76292 -0.138716,-0.16184 -0.277423,-0.32367 -0.416137,-0.4855 -3.699073,-2.51999 -7.398001,-5.03988 -11.097,-7.55983 -3.768431,-3.23669 -7.536712,-6.47325 -11.305066,-9.70987 -2.889904,-3.19045 -5.779688,-6.38078 -8.669531,-9.57116 -0.693579,-1.17908 -1.387126,-2.35812 -2.080688,-3.53717 z"
         transform="translate(75.141708)" /><path
         style="fill:#008bcd;fill-opacity:1;stroke:#ffffff;stroke-width:0.264583"
         d="m 76.083801,136.42374 c 0.577969,-0.16184 1.364009,0.30054 2.196291,0.97099 0.832283,0.67045 1.71078,1.54895 2.173154,2.12692 0.462374,0.57797 0.508611,0.85539 0.416133,1.45649 -0.09248,0.6011 -0.323659,1.52583 -0.462373,2.42747 -0.138713,0.90164 -0.184949,1.78013 -0.11559,2.45058 0.06936,0.67045 0.254303,1.13281 0.508612,1.45648 0.254309,0.32366 0.577967,0.50861 0.878511,0.6242 0.300544,0.1156 0.577972,0.16183 0.901634,0.16183 0.323661,0 0.693562,-0.0462 2.450617,-0.0925 1.757055,-0.0462 4.901142,-0.0925 6.65817,0 1.757028,0.0925 2.126919,0.32366 2.519944,0.57797 0.393024,0.25431 0.809154,0.53173 1.595205,1.06347 0.78605,0.53174 1.941963,1.31776 2.334975,1.82637 0.393012,0.50862 0.02312,0.7398 -0.323661,0.85539 -0.346784,0.1156 -0.670441,0.1156 -2.982359,0.13872 -2.311919,0.0231 -6.61192,0.0693 -8.715726,0.18495 -2.103805,0.11559 -2.01133,0.30054 -1.47959,0.78604 0.53174,0.4855 1.502713,1.27153 2.866736,2.28876 1.364022,1.01724 3.121012,2.26563 5.687227,3.95332 2.566215,1.68769 5.941484,3.81457 8.553919,5.50225 2.61244,1.68768 4.4619,2.93607 6.24206,4.4388 1.78016,1.50274 3.49091,3.25973 4.71621,4.9243 1.2253,1.66456 1.96509,3.23661 2.49683,5.1786 0.53173,1.942 0.85539,4.25383 0.71667,6.61197 -0.13872,2.35813 -0.73979,4.76244 -1.68767,7.00498 -0.94788,2.24253 -2.24251,4.32318 -3.42158,5.71031 -1.17907,1.38714 -2.24251,2.08069 -3.25974,2.19627 -1.01724,0.11559 -1.9882,-0.34677 -3.02856,-0.85539 -1.04035,-0.50862 -2.15003,-1.06346 -2.56617,-1.43336 -0.41613,-0.3699 -0.13871,-0.55485 0.71669,-1.31778 0.85541,-0.76293 2.28875,-2.10379 3.51405,-3.53717 1.2253,-1.43338 2.24251,-2.95919 2.8436,-4.60064 0.60109,-1.64145 0.78604,-3.39844 0.60108,-5.29419 -0.18495,-1.89576 -0.73979,-3.93017 -2.05758,-5.9184 -1.31779,-1.98823 -3.39844,-3.93017 -5.61787,-5.57161 -2.219419,-1.64144 -4.577484,-2.9823 -7.120573,-4.57752 -2.543089,-1.59521 -5.271051,-3.44467 -7.952851,-5.40979 -2.6818,-1.96511 -5.317281,-4.04576 -7.305506,-6.19583 -1.988224,-2.15006 -3.329087,-4.36942 -4.161366,-6.68132 -0.832278,-2.3119 -1.155934,-4.7162 -1.17905,-6.68131 -0.02312,-1.96511 0.254302,-3.49091 0.577968,-4.64686 0.323667,-1.15594 0.69356,-1.94196 1.271529,-2.10379 z"
         id="path3"
         inkscape:path-effect="#path-effect3"
         inkscape:original-d="m 75.875734,135.79953 c 0.786037,0.46237 1.572074,0.92475 2.358112,1.38712 0.87853,0.87853 1.757024,1.75703 2.635536,2.63554 0.04624,0.27743 0.09247,0.55485 0.138713,0.83228 -0.231193,0.92477 -0.462376,1.8495 -0.693563,2.77425 -0.04624,0.87853 -0.09247,1.75702 -0.138713,2.63553 0.184954,0.46239 0.3699,0.92475 0.554852,1.38713 0.323667,0.18495 0.647324,0.3699 0.970986,0.55485 0.277432,0.0462 0.55485,0.0925 0.832276,0.13871 0.369906,-0.0462 0.739799,-0.0925 1.1097,-0.13871 3.144213,-0.0462 6.288299,-0.0925 9.432449,-0.13871 0.369906,0.23119 0.739798,0.46237 1.109699,0.69356 0.416147,0.27743 0.832276,0.55485 1.248413,0.83227 1.155962,0.78606 2.311876,1.57208 3.467811,2.35811 -0.369906,0.2312 -0.739798,0.46238 -1.109699,0.69357 -0.323667,0 -0.647324,0 -0.970986,0 -4.300175,0.0462 -8.600176,0.0925 -12.900263,0.13871 0.09248,0.18495 0.184951,0.3699 0.277426,0.55485 0.971005,0.78605 1.941975,1.57208 2.912962,2.35811 1.757061,1.24844 3.51405,2.49683 5.271074,3.74524 3.375406,2.12697 6.750674,4.25385 10.126011,6.38077 1.84954,1.24844 3.699,2.49683 5.5485,3.74524 1.71082,1.75706 3.42158,3.51405 5.13236,5.27108 0.73982,1.5721 1.4796,3.14415 2.2194,4.71622 0.32367,2.31192 0.64733,4.62375 0.97099,6.93563 -0.6011,2.40439 -1.20217,4.8087 -1.80326,7.21305 -1.29468,2.08072 -2.5893,4.16137 -3.88395,6.24206 -1.06349,0.69357 -2.12693,1.38712 -3.19039,2.08069 -0.97101,-0.46239 -1.94197,-0.92476 -2.91296,-1.38713 -1.10972,-0.55486 -2.2194,-1.1097 -3.3291,-1.66455 0.27743,-0.18495 0.55485,-0.3699 0.83227,-0.55485 1.43339,-1.34091 2.86673,-2.68177 4.30009,-4.02266 1.01724,-1.52587 2.03445,-3.05168 3.05168,-4.57752 0.18495,-1.75706 0.36989,-3.51405 0.55485,-5.27107 -0.55486,-2.03449 -1.1097,-4.0689 -1.66455,-6.10335 -2.08073,-1.94201 -4.16138,-3.88395 -6.24207,-5.82592 -2.358156,-1.34092 -4.716221,-2.68178 -7.074333,-4.02266 -2.728068,-1.84954 -5.456026,-3.69901 -8.184039,-5.5485 -2.635588,-2.08074 -5.271074,-4.16138 -7.906609,-6.24207 -1.340917,-2.21944 -2.681777,-4.4388 -4.022664,-6.6582 -0.323668,-2.4044 -0.647325,-4.8087 -0.970987,-7.21305 0.277429,-1.52587 0.55485,-3.05167 0.832273,-4.57751 0.369909,-0.78605 0.739802,-1.57207 1.109703,-2.35811 z"
         transform="translate(74.627321,0.27742499)" /><path
         style="fill:#008bcd;fill-opacity:1;stroke:#ffffff;stroke-width:0.264583"
         d="m 184.5863,185.18118 -1.24842,-0.27743 -25.24577,0.41614 6.2421,4.30008 19.69724,0.27743 z"
         id="path4" /><path
         style="fill:#008bcd;fill-opacity:1;stroke:#ffffff;stroke-width:0.264583"
         d="m 157.39854,178.8004 h 19.83599 l -5.13238,-4.4388 -10.54221,-0.13871 z"
         id="path5" /><path
         style="fill:#006fb4;fill-opacity:1;stroke:#ffffff;stroke-width:0.264583"
         d="m 169.74402,144.12228 v 0 l 12.20674,8.04532 3.3291,-6.38077 -9.01631,-5.82593 z"
         id="path6" /><path
         style="fill:#006fb4;fill-opacity:1;stroke:#ffffff;stroke-width:0.264583"
         d="m 108.79683,135.2678 c -0.55485,1.17905 -0.23118,2.24252 0.16184,3.76837 0.39302,1.52586 0.85538,3.51403 1.01721,4.71621 0.16183,1.20218 0.0231,1.61831 -0.39302,2.54307 -0.41615,0.92477 -1.10969,2.3581 -1.75702,3.5834 -0.64733,1.22531 -1.24841,2.24252 -2.42749,3.42159 -1.17907,1.17906 -2.93606,2.51992 -6.242087,4.73936 -3.30603,2.21943 -8.160871,5.31728 -11.767418,7.74476 -3.606548,2.42749 -5.964615,4.18448 -7.606055,5.84904 -1.641439,1.66457 -2.566169,3.23661 -3.537167,5.31733 -0.970998,2.08071 -1.988203,4.66996 -2.311862,6.95874 -0.323659,2.28877 0.04623,4.27694 0.855405,6.56572 0.80917,2.28879 2.057554,4.87803 3.56029,6.88938 1.502737,2.01134 3.259728,3.44468 5.34044,4.99365 2.080712,1.54898 4.48501,3.21349 5.849021,4.16136 1.364011,0.94788 1.687664,1.17906 2.196285,1.29465 0.50862,0.1156 1.202167,0.1156 2.843624,0.0925 1.641457,-0.0231 4.230705,-0.0694 5.363521,-0.34679 1.132813,-0.27743 0.809163,-0.78603 0.300543,-1.29465 -0.508623,-0.50862 -1.202172,-1.01722 -3.837755,-2.75115 -2.635583,-1.73394 -7.213004,-4.69308 -10.05662,-6.88938 -2.843616,-2.19629 -3.953296,-3.62963 -4.693099,-5.22484 -0.739803,-1.59521 -1.109697,-3.3522 -1.294647,-4.85493 -0.18495,-1.50273 -0.18495,-2.75112 0.138719,-3.97643 0.323669,-1.2253 0.97098,-2.42745 2.219411,-4.04579 1.248432,-1.61833 3.097895,-3.65274 5.247962,-5.4329 2.150067,-1.78016 4.600606,-3.30596 7.60608,-5.10925 3.005475,-1.80328 6.565689,-3.88392 9.363079,-5.84903 2.79739,-1.96512 4.8318,-3.81458 6.51948,-6.1496 1.68768,-2.33502 3.02855,-5.15546 3.79146,-7.7679 0.76292,-2.61244 0.94787,-5.01674 0.78603,-7.07432 -0.16183,-2.05759 -0.67044,-3.76835 -1.27153,-5.38667 -0.6011,-1.61833 -1.29465,-3.14414 -1.7339,-3.8377 -0.43926,-0.69356 -0.62421,-0.55485 -1.43338,0.16185 -0.80917,0.71669 -2.2425,2.01131 -2.79735,3.19037 z"
         id="path7"
         inkscape:path-effect="#path-effect7"
         inkscape:original-d="m 107.91832,135.38339 c 0.32366,1.06346 0.64732,2.12693 0.97099,3.19039 0.46238,1.98825 0.92474,3.97642 1.38712,5.96464 -0.13872,0.41614 -0.27742,0.83227 -0.41614,1.24841 -0.69357,1.43339 -1.38712,2.86672 -2.08069,4.30009 -0.60109,1.01724 -1.20217,2.03445 -1.80326,3.05167 -1.75706,1.34091 -3.51405,2.68177 -5.27107,4.02266 -4.855035,3.09798 -9.709877,6.19583 -14.564812,9.29374 -2.35816,1.75706 -4.716227,3.51405 -7.074339,5.27107 -0.924766,1.57211 -1.849498,3.14415 -2.774249,4.71623 -1.017246,2.58935 -2.03445,5.1786 -3.051675,7.7679 0.369909,1.98825 0.739799,3.97642 1.1097,5.96463 1.248439,2.58936 2.496825,5.1786 3.745238,7.7679 1.757061,1.43339 3.51405,2.86673 5.271074,4.30009 2.404398,1.66459 4.808699,3.3291 7.213049,4.99365 0.32367,0.2312 0.647325,0.46238 0.970989,0.69357 0.693577,0 1.387124,0 2.080686,0 2.589353,-0.0462 5.1786,-0.0925 7.767899,-0.13872 -0.32367,-0.50862 -0.64732,-1.01722 -0.97099,-1.52584 -0.693572,-0.50862 -1.387121,-1.01722 -2.080684,-1.52583 -4.577604,-2.95926 -9.155025,-5.9184 -13.732537,-8.8776 -1.10972,-1.43339 -2.219399,-2.86673 -3.329098,-4.30009 -0.369909,-1.75706 -0.739802,-3.51405 -1.109702,-5.27107 0,-1.24844 0,-2.49683 0,-3.74524 0.64734,-1.2022 1.294651,-2.40435 1.941975,-3.60653 1.849538,-2.03449 3.698999,-4.0689 5.5485,-6.10335 2.450637,-1.52586 4.901174,-3.05167 7.351763,-4.57751 3.560358,-2.08073 7.120573,-4.16137 10.680863,-6.24206 2.03449,-1.84954 4.0689,-3.699 6.10335,-5.5485 1.34091,-2.82054 2.68177,-5.64098 4.02266,-8.46146 0.18495,-2.4044 0.3699,-4.8087 0.55485,-7.21305 -0.50862,-1.71082 -1.01723,-3.42158 -1.52584,-5.13236 -0.69357,-1.52587 -1.38712,-3.05168 -2.08069,-4.57752 -0.18495,0.13872 -0.3699,0.27743 -0.55484,0.41614 -1.4334,1.29468 -2.86673,2.5893 -4.30009,3.88395 z"
         transform="translate(75.696558,-1.1096999)" /></g></g></svg>
